<?xml version="1.0" encoding="utf-8"?>
<!-- Generator: Adobe Illustrator 23.1.0, SVG Export Plug-In . SVG Version: 6.00 Build 0)  -->
<svg version="1.1" id="svg" xmlns="http://www.w3.org/2000/svg" xmlns:xlink="http://www.w3.org/1999/xlink" x="0px" y="0px"
	 viewBox="0 0 482 483" style="enable-background:new 0 0 482 483;" xml:space="preserve">
<style type="text/css">
	.st0{fill-rule:evenodd;clip-rule:evenodd;fill:#FFFFFF;}
</style>
<path class="st0" d="M74.3,57.8c-4.9,1.6-11.1,7-13.3,11.8c-2.9,6-3.2,15.2-0.5,20.4c1,1.9,34.9,36.7,75.4,77.2l73.6,73.7
	l-73.6,73.8c-50.9,51-74.2,75-75.4,77.8c-2.6,5.6-2.4,14.8,0.3,20.1c3.9,7.6,12.8,13.4,20.6,13.4c1.5,0,4.8-0.5,7.4-1.1
	c4.4-1.1,8.9-5.3,79.4-75.7l74.8-74.6l74.8,74.6c79.7,79.5,76.8,76.9,86.3,76.9c8.4,0,17.2-5.5,21.2-13.4c2.7-5.3,2.9-14.5,0.3-20.1
	c-1.3-2.8-24.5-26.7-75.4-77.8l-73.6-73.8l74.2-74.2l74.2-74.2l1.7-5.9c1.4-4.9,1.5-6.8,0.6-10.9c-2.5-10.9-9.9-17.5-20.7-18.4
	c-12.6-1-7.7-5.2-89.6,76.6L243,207.5l-72.7-72.6C130.2,95,96,61.3,94.1,60c-2.6-1.8-5.1-2.4-10.5-2.6
	C79.7,57.3,75.5,57.5,74.3,57.8"/>
</svg>
