<?xml version="1.0" encoding="utf-8"?>
<!-- Generator: Adobe Illustrator 23.1.0, SVG Export Plug-In . SVG Version: 6.00 Build 0)  -->
<svg version="1.1" id="svg" xmlns="http://www.w3.org/2000/svg" xmlns:xlink="http://www.w3.org/1999/xlink" x="0px" y="0px"
	 viewBox="0 0 468 421" style="enable-background:new 0 0 468 421;" xml:space="preserve">
<style type="text/css">
	.st0{fill-rule:evenodd;clip-rule:evenodd;fill:#FFFFFF;}
</style>
<path class="st0" d="M60.6,52.1C50.2,54.5,41.7,65.8,41.7,77c0,10.5,6,19.7,15.8,24.1c3.9,1.8,11.1,1.8,181.6,1.9l177.6,0l5.2-2.6
	c21.5-10.7,18.2-42.7-5-48.3C410.9,50.7,66.7,50.7,60.6,52.1 M60.5,183.9c-8.2,2-16.4,11-18.4,20.1c-2.8,12.9,6,26.7,19.1,29.9
	c3,0.7,58.3,1,180.3,0.8c171.8-0.3,176.1-0.3,179.9-2.2c16.7-8.3,20-29.5,6.6-42.5c-7.9-7.6,6.2-7.1-189.4-7
	C142.3,183.2,62.1,183.5,60.5,183.9 M57.4,316.9c-6.2,2.8-10.9,7.5-13.5,13.4c-6.6,15.3,2,32.3,18,35.7c4.1,0.9,50.3,1.1,180.5,0.9
	c166.7-0.3,175.2-0.4,178.6-2.1c20.4-10.1,20-38.4-0.6-47.8c-3.9-1.8-11.1-1.8-181.6-1.8S61.3,315.1,57.4,316.9"/>
</svg>
